<?xml version="1.0" encoding="UTF-8"?>
<svg version="1.1" viewBox="0 0 2048 1684" width="1280" height="1280" xmlns="http://www.w3.org/2000/svg">
<path transform="translate(543,190)" d="m0 0h90l7 6 4 12 2 4 2 9 4 8 3 10 5 12 7 13 7 14 6 11 7 10 9 14 7 10 7 8 8 11 5 5 7 8 4 3v2l4 2 5 6 8 7 7 7 7 4 5 5 9 6v2l5 2 7 5 4 4 9 4 8 6 6 3 4 3 7 3 15 8 10 4 4 2 8 2 9 4 11 4 7 1 5 3 24 6 20 3 9 3 31 1h40l25-1 17-2 25-5 22-6 3-2 13-3 15-5 5-3 9-2 4-3 7-3 5-3 7-3 9-5 8-5 17-10 10-8 7-5 5-3 16-14 6-5 4-2 6-7 6-5 7-8 3-3 7-9 8-8 7-11 9-12 1-2h2l6-12 6-9 6-10 11-23 4-9 4-11 2-1 2-11 3-4 3-12 3-6 2-7 3-2h91l3 2v9l-4 6-4 13-1 21 4 13 2 10 3 4 3 8 2 1 4 8 8 10 9 11 9 10 10 9 6 4 12 12 11 9 12 11 7 4 7 8 5 5 6 5 5 6 4 6 5 5 8 11 8 15v7l-4 11-14 7-14 1-15-3-18-3-23-7-16-5-8-3-45-15-15-3-9-3-7-1-17-1-7-1h-11l-7 2-12 2-12 5-11 7-6 5-9 13-8 19-1 13v19l1 22 5 16 2 11 10 30 4 11 3 9 4 13 5 16 2 8 2 4 1 13 3 7 1 22-2 10-5 9-3 2-11 2-7-1-15-8-5-5-8-6-9-9-7-6-7-8-20-20-6-8v-2l-3-1-9-11-11-12-28-28-11-7-12-6-5-5-12-2-13-4h-15l-12 1-8 4-8 3-5 3-6 7-8 7-6 7h-2l-3 9-6 12-6 13-5 17-4 18-3 10-1 14-3 5-3 22-3 9-3 17-3 9-2 8-4 10-2 6-5 10-6 9-6 7-8 3-8-1-9-6-7-11-5-9-4-9-6-18-4-18-3-14-2-11-2-7-3-20-4-15-4-16-2-10-3-5-2-10-8-15-9-16-7-6-7-9-12-7-10-4-3-2-14-1h-15l-9 3-1 1-12 2-4 3-6 3-9 6-11 7-3 3h-2l-2 4-5 5h-2l-1 3-8 7-6 7h-2l-2 5-10 10-14 17-6 7-5 5h-2l-2 4-6 8-7 6-5 5-12 11-8 5h-2l-2 4-6 3-4 3-10 2h-8l-5-4-4-5-3-9-1-5v-10l3-19 2-13 3-8 3-9 2-4 2-10 3-7 2-8 3-6 2-9 4-9 2-9 3-6 2-15 3-4 1-13 4-11v-33l-2-10-2-5-2-9-9-14v-2h-2l-10-10-7-4-8-4-10-3-13-2h-22l-23 2-9 3-2 1-13 2-10 4-9 2-5 3-13 3-3 2-12 3-6 3-9 2-10 4-6 1-8 3-18 3-9 2-17 1-13-5-7-8v-16l9-15 9-12 10-10 6-7 8-7 10-10 10-9 8-6 7-6 5-5 16-14 24-24 5-8 3-3 3-6 8-13 4-13 2-7 1-10v-15l-4-15-5-10v-6z" fill="#E4B551"/>
<path transform="translate(263,41)" d="m0 0h1482l2 2v101l-5 3h-1478l-5-3v-100z" fill="#E4C68A"/>
<path transform="translate(711,190)" d="m0 0h584l4 4-2 10-4 8-3 8-5 11-5 10-3 5-8 13-3 4-3 6-7 10-7 9-8 8-8 11-8 8h-2v2h-2v2h-2v2h-2l-2 4-8 6h-2v2h-2v2l-6 4-5 5-8 6-5 3h-2v2l-8 4-14 9-11 6-6 4-10 2-9 4-16 8-16 3-6 3-17 3-5 3-31 1-17 3h-17l-17-3-24-1-7-3-11-1-8-3-19-4-21-9-9-3-9-4v-2l-9-3-17-9-5-5-8-4-9-5v-2l-4-2-5-3-5-5-8-7-6-5-6-4v-2h-2v-2l-3-1-5-7v-2h-2l-7-8-4-4v-2l-4-2-6-9-4-4-4-7-3-2-3-7-7-11-3-5-4-6-5-11-6-16-3-4-4-11 1-6z" fill="#71C697"/>
<path transform="translate(944,1388)" d="m0 0 7 2 9 7v8l-4 8-5 11-6 12-2 9-4 6-3 8-3 6-2 9-3 5-3 10-2 4-1 11-4 11-1 24 2 7h7l16-13 11-11 8-11 4-5 2-15 4-8 1-10 5-5 6-1 11 9 1 7-3 6-4 13-2 8-3 26 1 5 7-2 10-6 6-4 10-9 7-6h2l2-4 9-10 6-9 2-2 1-15 6-11 6-3 8 1 7 2 2 2v8l-4 6 1 14 3 9 7-1 7-3 5-4 5-3 9-7 6-9 2-4 12-4 8-5 5-2 13-2 8 1 6 4 3 6v11l-4 8-4 5-5 5-7 6-7 4-5 3-15 6-1 4 4 5 8 5 17 1h7l5-2 9-3 7-3 7-5 7-4 5-4 4-1 2-4 5-5 8-10 8-16 2-2 5 1 2 5-1 9-6 10-7 10-22 22-8 5-9 6-7 3-8 3-14 4h-12l-17-5-10-8-6-7-4-6-3-18-14 8-8 4h-2v8l1 3v7l-3 10-8 11-7 3h-9l-11-6-10-8-11-9-5 3-14 10-13 5h-8l-9-6-4-8-2-5v-5l-5 2-2 3h-2l-2 4-3 1-2 4-9 8-16 8h-6l-11-6-7-8-3-6-2-6-4 1-9 10-5 5-8 6-9-1-6-4-7-9-1-7h-4l-2 4-10 10-16 9-5 2-10-2-7-4-5-5-4-6-2-12-6 4-7 8-8 9-7 5-3 3-7 4h-5l-11-6-8-8-6-12-5 3-6 7-12 8-9 4h-6l-10-6-8-8-4-16-1-2v-18l3-18 2-6v-4h-14l-1 5-4 7-3 6-8 13-7 9h-2l-4 8h-2l-2 4-13 13-11 7-8 5-2 1h-8l-8-3-5-5-6-7-3-5-1-9h-4l-4 8-5 5-16 15-8 5-7-1-10-5-9-9-3-8v-15l2-13 3-5 3-10 7-11 5-9 9-9 9-7 11-4 5-1 7 3 6 4 6 11 2 2h9l9 6 1 1v10l-4 11-3 15-1 2v12l3 6v3l6 1 12-6 8-8h2l2-4 7-8 6-5 4-6 7-10 6-11v-6l-4-4-3-8 1-8 3-10 8-7 8-3h7l3 2-1 7-5 11 1 4 4 1 11-3h13l6 4 3 9v6l-3 8-2 9-3 10-1 9v22l3 5 4 1 9-6 10-8 12-12 6-10 3-8 6-11 7-10 7-8 7-7 12-7h11l8 4 7 10 3 4 12 2 6 5 3 3-2 9-3 10-3 8v26l5 5 6-1 9-6 8-7h2l1-3 6-5 5-8 2-10 3-5 3-10 8-13 8-9 7-5 5-1h11l6 4 5 7 3-1 3-7 2-9 4-8 2-9 3-4 3-7 4-10 3-6 3-8 7-13 3-3zm-410 88-8 5-8 7-11 12-6 9-5 11-3 14-1 4v9l4 4 7-1 10-7 5-4 12-12 11-15 7-11 1-9-6-12-5-4zm612 1-8 3-8 6-3 5-4 4v5l5 1 15-9 10-10 1-3-2-2zm-259 3-10 10v2h-2l-6 10-7 10-6 16-1 14 6 2 8-6 10-11 8-12 12-21 1-1v-7l-4-5-2-1zm-117 1-8 5-5 4-6 7-5 5-4 6-3 5-3 7-1 9-3 8v8l4 2 9-6 7-6v-2l4-2 9-9 8-11 6-10 2-3-1-7-6-10zm279 18-9 13 1 4 16-4 1-4-5-8zm2 26-13 4-1 4 6 5 7 5h6l2-3 1-13-2-2z" fill="#020201"/>
<path transform="translate(1394,948)" d="m0 0h209l5 2 2 10 2 14 2 5 3 27v5l-1 1-7-1-7-5-16-8-10-6-9-4-17-10-18-10-14-7-3-1h-74l-2 4 1 154 1 1h111l6-5 5-5 11-9 12-11h6l2 4v65l-2 5h-5l-6-5-5-6-8-6-11-10-5-3-4-1h-107l-1 1-1 159h67l10-4 5-4 6-3 11-7 6-3 5-3 14-8 10-7 7-3 9-6 9-5 10-6 4-3 7 1 1 2-1 9-3 13-2 15-3 14-2 14-5 5-98 1h-66l-77-1-2-2 1-6 16-12 13-12 2-4v-133l-2-3-21-3-4-3-9-3-11-6-9-7-15-15-5-9-7-13-2-10-3-7-1-17 1-14 4-10 1-7 3-3 3-9 6-9 7-8 4-5 11-8 10-7 9-4 11-4zm-13 12-8 2-12 4-11 7-6 4v2l-4 2-10 10-3 7-7 13-5 25v8l1 2 2 13 3 11 4 7 4 8 6 7 5 6 8 6 5 5 14 6 11 4 6 1h8l2-3v-155l-1-2z" fill="#030302"/>
<path transform="translate(680,949)" d="m0 0h62l8 9 8 13 6 7 3 7 7 8 5 9 6 8 4 6 4 5 5 9 6 7 4 8 5 6 5 9v2l4 2 7 12 6 8 5 9 5 6 14 21 6 8 3 6 7 8 4 8 6 7 6 10 5 6 2 5 7 8 4 8 5 6 5 9 5 6 6 10 6 8 5 9 3 3 5 9v2l3-1v-271l-3-5-8-7-10-9-9-6 1-6 4-2h66l2 1v6l-4 4-6 4-3 3h-2l-1 3-12 9-2 4-1 317-3 3-5 1h-21l-8-2-9-14-9-13-6-9-4-5-5-9-6-5-3-9-7-7-5-9-6-8-3-6-3-3-5-7-4-7-7-10-4-6-7-11-10-14-4-7-7-10-2-4-3-3-9-14-7-10-6-9-1-4h-2l-10-16-7-10-4-6-6-6-3-8-7-8-6-10-6-7-3-6-10-14h-1l1 272 5 5v2l4 2 9 9 11 7 2 5-3 3-3 1h-65l-5-3 1-5 5-4 10-7 7-7 4-1 1-3 2-1 1-3v-289l-4-3v-2l-5-2-9-8-11-8-1-1v-6z" fill="#E4B552"/>
<path transform="translate(161,948)" d="m0 0h15l19 1 7 1 21 1 11 3 25 3 4 5v62l-3 4-6-1-9-17-7-7-2-6-3-1-6-7-7-6-5-5-10-7-8-5-18-5h-34l-9 2-8 3-12 6-6 5-7 11-5 9v26l3 7 4 10 10 11 4 4 8 7 6 5 13 9 16 10 20 12 14 8 12 8 7 4 13 8 11 9 9 6 7 6 7 8 8 13 4 5 3 8 4 11 1 10v31l-2 5-2 3-1 9-4 6-7 14-5 5-7 8-14 10-8 5-13 6-10 4-14 2-10 3-11 1h-16l-24-3-6-2-8-1-3-3-11-3-11-6-15-10-13-13-1-3-4-3v-2l-4-2-7-15-5-19v-16l1-10 3-6 2-9 7-13 3-3 2-4h2l2-4 9-8 9-6h2v-2l18-8h8l7-4 7-1h15l4 1 2 6-1 2-11 2-9 1-5 2-15 2-7 4-7 3-10 6-9 8-5 8-3 3-3 7-2 4-3 21-1 10 3 11 1 10 4 6 3 5 8 10v2h2l7 8 14 9 11 5 16 6 8 2 14 1 5 1h16l25-3 22-11 3-1v-2l5-5 5-6 6-12 3-15 2-8-1-10-4-20-6-11-6-10-8-7-6-7-18-13-7-4-9-6-22-12-6-3-6-5-8-4-14-8-8-6-11-7-10-8-3-2v-2l-3-1-7-8-9-12-6-16-1-5v-32l2-8 2-3 2-10 12-16 13-13 6-3h2l1-3 10-4 11-6 14-3 18-1z" fill="#E4B552"/>
<path transform="translate(1151,948)" d="m0 0h13l19 1 7 1 20 1 23 4 13 2 6 4 2 4v63l-1 2-5-1-4-2-4-9-7-11-9-11-7-8-10-9-3-3-14-7-13-7-4-1h-35l-9 2-14 4-9 6-9 8-6 10-4 12v12l4 15 5 10 3 5 8 8v2l4 2v2l4 2 5 3 3 3 10 7v2l6 2 11 7 9 5 15 9 8 5 10 6 7 4 9 6 10 6 12 9 5 4v2l4 2 17 17 6 12 4 6 4 11 2 19v12l-1 18-4 7-2 10-10 15-7 8-10 10-15 10-19 8-4 2-15 2-10 3-28 1-16-2-7-3-12-1-5-3-9-3-4-3-9-3-16-11-10-10v-2l-4-2-8-11-7-15-3-16-1-5v-10l4-20 8-16 5-8 10-11 9-7 7-3 3-3 7-1 5-4 9-1 5-3 11-2h15l4 4-1 5-2 1-15 1-7 3-15 2-7 4-8 3-5 4-6 4-4 2-2 4-3 1-6 12-4 10-2 3-1 5-1 19 1 15 2 6 9 17 9 10 8 8 11 7 13 7 11 4 11 3 18 2 4 1h10l3-1 23-2 8-4 8-2 5-4 10-5v-2h2l2-4 8-13 4-12 1-9v-23l-3-9-1-1-2-9-3-4-3-5-8-11-11-10-9-7-5-4-8-4-9-6-11-6-9-5-16-10-7-3-9-6-17-10-20-16-7-7-7-8-6-10-4-11-4-16v-17l2-10 2-5 2-8 8-15 9-11 12-10 7-4 11-6 16-5 7-2 17-1z" fill="#020201"/>
<path transform="translate(1768,948)" d="m0 0h90l89 1 3 3 3 10 2 15 4 21v11l-2 2h-6l-10-6-4-3-5-2-4-3-5-2-11-6-13-7-10-6-5-2-5-4-12-6-5-3-4-1h-20l-2 4 1 306 6 7 6 4 10 9 8 5v7l-2 1-100 1-6-2-1-3 3-5 8-5 5-5 11-10 5-5v-308l-1-1h-20l-11 5-14 7-4 3-5 2-4 3-8 4-13 7-8 5-7 3-9 5-14 8-6-1-1-5 3-8 3-25 2-7 2-13 5-4z"/>
<path transform="translate(436,948)" d="m0 0h7l-1 6-3 5-11 9-13 11-2 4v182l2 29 4 23 9 26 6 11 5 8 12 13 8 5 13 7 10 3 2 1 13 2h20l15-4 10-3 19-10 7-8 5-5 6-7 3-5 7-11 2-10 3-5 3-12 2-4 2-12 3-30 1-12v-171l-7-8-9-7-6-7-7-5-1-7 3-2h67l2 1v6l-4 5-6 4-10 9-8 7h-2l-1 6v186l-1 21-4 6-1 16-4 10-3 8-2 5-2 8-9 14-9 11-16 16-12 7-5 3-7 3-13 4-16 4h-42l-12-4-9-1-17-8-11-6-5-5-9-7-5-4-5-8-6-8-5-5-5-14-4-10-2-3-2-13-3-9-1-5-2-26-2-16v-172l-3-5-13-12-12-9-2-2v-5l2-2z" fill="#E4B552"/>
<path transform="translate(1818,1390)" d="m0 0h8l6 4 4 5v9l-1 9-11 21-6 11-9 13-11 14-8 10-11 12-7 8-5 6-2 7-1 20 4 8 1 1 7-1 10-6 24-24 13-18 8-15 5-7h3l1 4-3 10-5 10-11 17-7 8-1 4-4 5-1 2h-2l-2 4-8 7-12 9-12 5-9-1-8-5-6-6-4-12-1-14-6 1-12 11-17 9-10 3-9 3h-16l-16-6-9-6-3-5-4-4-2-4-5 1-13 16-5 3-4 1-10 8-11 4h-6l-8-4-7-7-4-7-1-6v-16l2-15-16 7-5 3-9 3-10 3-8 8-14 8-13 3-8-4-5-5-2-9 1-7 3-12 6-9 8-15 5-4 7-4h17l8 4 6 9v13l-2 6 1 5 9-3 10-5 9-6h2l2-4 5-11 5-15 2-9 3-5 1-7-7 1-13 4-4 2-7 1-4-1-1-6 4-4 16-5 14-3 8-4h2l3-9 9-17 3-6 4-4h7l8 7 1 1v6l-4 6-4 9-2 5 2 3 21 2 10 3 3 4-1 4-4 1-21-3-13-1-4 2-8 16-3 11-6 12-3 10-2 10-3 8-3 23v7l3 9 2 2 6-1 9-5 8-6 6-7 7-6 12-16 3-9 5-11 7-10 8-7 12-6 14-3h10l7 6 1 2-1 13-12 16-11 7-4 3-9 4-10 3-2 5 3 5 5 4 5 3 13 2h12l10-3 12-5 11-7 13-10 9-9 6-15 4-13 5-15 10-20 9-15 4-6 11-13 5-5 8-6zm-3 9-11 11-9 16-2 4-2 8-4 7-3 8-2 4-2 9-6 12-1 6h4l7-6 4-5v-2l4-2 10-15 9-12 12-24 1-5v-12l-2-2zm-131 77-10 3-8 6-4 5-5 8 1 3h6l8-5 6-4v-2l4-2 7-8-1-3zm-172 5-4 4v10l7 11 3 2 4-1 4-9 2-5-1-6-4-5-2-1zm-16 22-4 4-3 8v8l3 5h7l11-7 2-2v-6l-7-4-5-6z" fill="#020302"/>
<path transform="translate(1470,1376)" d="m0 0h8l12 11 1 4-4 10-6 13-6 18-5 10-6 17-5 11v7l5 5 2 5v6l-3 4-12 1-4 4-7 21-5 13-11 33-5 13-3 12-6 17-5 4-7-1-6-7-1-7 4-11 2-13 4-9 2-8 12-35 6-18v-6l-7 1-27 3-3 1-7 19-3 10-3 8-3 10-6 19-3 13-5 3-7-3-5-4-1-3v-10l4-14 2-5 2-9 3-5 3-12 4-9-1-3-7 1-7 2-16 3-4 2-6-1-1-1v-7l7-6 14-6 17-4 11-4 3-8 8-24 3-8 5-14 4-7 3-11 6-16 5-10 6-1 7 3 6 5 1 5-5 10-6 18-3 5-4 11-7 19-3 9-3 5v4l8-1 13-2 14-2 4-4 12-35 6-17 4-7 4-13 4-9 6-15z" fill="#020201"/>
<path transform="translate(449,1376)" d="m0 0h16l19 3 11 7 10 11 4 9 1 7v9l-1 9-4 6-2 7-6 10-10 12-8 7-11 10-12 7-3 3-17 8-5 3-9 3-9 4-3 5-2 10-4 8-4 7-1 9-6 12-5 15-4 11-2 12-3 3h-9l-4-2-6-10-1-6 4-9 3-11 3-7 2-7 6-12 4-14 3-6-1-7-8-7v-8l3-2 12-3 6-4 3-4 3-12 4-9 4-7 2-9 14-28 2-8 5-4h7l8 5 3 3 1 8-3 5-7 14-5 12-3 9-3 5-3 7-1 4 8-4 7-3 18-10 9-7 5-6 5-5 5-7 5-12 1-6v-13l-3-6-12-6h-23l-26 7-14 6-8 3-3 1-1 2-8 4-4 3-8 1-5-4-1-9 2-5 6-7 8-3 8-4 10-4 11-3 3-2 20-2z" fill="#010201"/>
<path transform="translate(989,1422)" d="m0 0h8l5 4 3 4v7l-5 8-9 6h-10l-5-3-1-3v-10l3-6 9-6z" fill="#010101"/>
<path transform="translate(1836,1473)" d="m0 0 5 1 2 4-1 3-2-5-3-1-3 1v-2z" fill="#656346"/>
<path transform="translate(1562,1507)" d="m0 0h4v5l-2-4z" fill="#383B2A"/>
<path transform="translate(1549,1449)" d="m0 0 8 2v1h-7z" fill="#444F39"/>
<path transform="translate(1538,1501)" d="m0 0 1 3h5v1h-6z" fill="#322C1E"/>
<path transform="translate(1548,1441)" d="m0 0h1v8h-1z" fill="#B9AD7A"/>
<path transform="translate(1586,1523)" d="m0 0h1v6h-1z" fill="#5E8462"/>
<path transform="translate(1766,1521)" d="m0 0h1v6h-1z" fill="#84A579"/>
<path transform="translate(1641,1442)" d="m0 0h6v1h-6z" fill="#122119"/>
<path transform="translate(1838,1400)" d="m0 0h1v6h-1z" fill="#384230"/>
<path transform="translate(1480,1533)" d="m0 0 3 3-3-1z" fill="#9F9E71"/>
<path transform="translate(1587,1516)" d="m0 0h1v5h-1z" fill="#2D271B"/>
<path transform="translate(1564,1514)" d="m0 0h1v5h-1z" fill="#CDC68C"/>
<path transform="translate(1565,1541)" d="m0 0 2 1-1 2z" fill="#556348"/>
<path transform="translate(1564,1536)" d="m0 0 1 4z" fill="#393122"/>
<path transform="translate(1585,1532)" d="m0 0 1 4z" fill="#1C3125"/>
<path transform="translate(1766,1529)" d="m0 0 1 4z" fill="#AB9467"/>
<path transform="translate(502,1522)" d="m0 0 1 4z"/>
<path transform="translate(1564,1520)" d="m0 0 1 4z" fill="#E4C68A"/>
<path transform="translate(1538,1518)" d="m0 0 4 1z" fill="#AAC690"/>
<path transform="translate(1641,1490)" d="m0 0v3z" fill="#726345"/>
<path transform="translate(1706,1470)" d="m0 0 1 4z"/>
<path transform="translate(1678,1460)" d="m0 0 4 1z" fill="#393122"/>
<path transform="translate(1642,1428)" d="m0 0 4 1z" fill="#556348"/>
<path transform="translate(1591,1560)" d="m0 0 3 1z" fill="#254232"/>
<path transform="translate(1495,1540)" d="m0 0 3 1z" fill="#E4C68A"/>
<path transform="translate(1490,1540)" d="m0 0 3 1z" fill="#E4C68A"/>
<path transform="translate(1586,1538)" d="m0 0" fill="#BDC68E"/>
<path transform="translate(1499,1539)" d="m0 0 3 1z" fill="#4C422E"/>
<path transform="translate(1502,1538)" d="m0 0 3 1z" fill="#4C422E"/>
<path transform="translate(1478,1529)" d="m0 0" fill="#4B8464"/>
<path transform="translate(1592,1496)" d="m0 0" fill="#4B8464"/>
<path transform="translate(539,1488)" d="m0 0" fill="#718460"/>
<path transform="translate(1595,1481)" d="m0 0" fill="#98845C"/>
<path transform="translate(1507,1468)" d="m0 0 3 1z" fill="#E4C68A"/>
<path transform="translate(1682,1459)" d="m0 0 3 1z" fill="#4C422E"/>
<path transform="translate(1656,1439)" d="m0 0" fill="#BDC68E"/>
<path transform="translate(1648,1430)" d="m0 0 3 1z" fill="#4C422E"/>
<path transform="translate(1636,1427)" d="m0 0 3 1z" fill="#4C422E"/>
<path transform="translate(1588,1561)" d="m0 0 2 1z" fill="#E4C68A"/>
<path transform="translate(1585,1560)" d="m0 0 2 1z"/>
<path transform="translate(1770,1547)" d="m0 0 2 1z" fill="#E4C68A"/>
<path transform="translate(1766,1540)" d="m0 0" fill="#726345"/>
<path transform="translate(1488,1539)" d="m0 0 2 1z" fill="#726345"/>
<path transform="translate(1486,1538)" d="m0 0 2 1z"/>
<path transform="translate(1765,1535)" d="m0 0" fill="#E4C68A"/>
<path transform="translate(1701,1529)" d="m0 0 2 1z"/>
<path transform="translate(1666,1529)" d="m0 0 2 1z" fill="#AAC690"/>
<path transform="translate(1703,1528)" d="m0 0 2 1z" fill="#E4C68A"/>
<path transform="translate(1477,1527)" d="m0 0" fill="#726345"/>
<path transform="translate(1476,1523)" d="m0 0" fill="#AAC690"/>
<path transform="translate(1476,1520)" d="m0 0" fill="#E4C68A"/>
<path transform="translate(1543,1517)" d="m0 0 2 1z" fill="#726345"/>
<path transform="translate(1667,1513)" d="m0 0 2 1z" fill="#E4C68A"/>
<path transform="translate(1834,1499)" d="m0 0" fill="#AAC690"/>
<path transform="translate(1639,1493)" d="m0 0" fill="#38634B"/>
<path transform="translate(1750,1488)" d="m0 0" fill="#AAC690"/>
<path transform="translate(1840,1484)" d="m0 0" fill="#726345"/>
<path transform="translate(1830,1481)" d="m0 0" fill="#726345"/>
<path transform="translate(1596,1479)" d="m0 0" fill="#726345"/>
<path transform="translate(1597,1477)" d="m0 0" fill="#726345"/>
<path transform="translate(1755,1473)" d="m0 0" fill="#AAC690"/>
<path transform="translate(1574,1472)" d="m0 0" fill="#AAC690"/>
<path transform="translate(1575,1469)" d="m0 0" fill="#726345"/>
<path transform="translate(1705,1468)" d="m0 0" fill="#726345"/>
<path transform="translate(1602,1467)" d="m0 0" fill="#E4C68A"/>
<path transform="translate(1524,1468)" d="m0 0 2 1z" fill="#E4C68A"/>
<path transform="translate(1516,1467)" d="m0 0 2 1z" fill="#E4C68A"/>
<path transform="translate(1675,1461)" d="m0 0 2 1z"/>
<path transform="translate(1760,1458)" d="m0 0" fill="#E4C68A"/>
<path transform="translate(1687,1458)" d="m0 0 2 1z" fill="#AAC690"/>
<path transform="translate(1580,1454)" d="m0 0" fill="#E4C68A"/>
<path transform="translate(1561,1450)" d="m0 0 2 1z" fill="#726345"/>
<path transform="translate(1584,1445)" d="m0 0"/>
<path transform="translate(1651,1444)" d="m0 0 2 1z"/>
<path transform="translate(1768,1442)" d="m0 0" fill="#38634B"/>
<path transform="translate(1653,1443)" d="m0 0 2 1z" fill="#726345"/>
<path transform="translate(1627,1440)" d="m0 0 2 1z" fill="#E4C68A"/>
<path transform="translate(1562,1434)" d="m0 0 2 1z" fill="#AAC690"/>
<path transform="translate(1564,1433)" d="m0 0 2 1z"/>
<path transform="translate(1567,1432)" d="m0 0 2 1z" fill="#726345"/>
<path transform="translate(1652,1431)" d="m0 0 2 1z" fill="#E4C68A"/>
<path transform="translate(1646,1429)" d="m0 0 2 1z" fill="#726345"/>
<path transform="translate(1582,1429)" d="m0 0 2 1z" fill="#726345"/>
<path transform="translate(1585,1428)" d="m0 0 2 1z" fill="#AAC690"/>
<path transform="translate(1837,1398)" d="m0 0" fill="#38634B"/>
<path transform="translate(1828,1389)" d="m0 0 2 1z" fill="#726345"/>
<path transform="translate(1825,1388)" d="m0 0 2 1z" fill="#E4C68A"/>
<path transform="translate(1822,1388)" d="m0 0 2 1z" fill="#E4C68A"/>
<path transform="translate(1615,1388)" d="m0 0 2 1z" fill="#E4C68A"/>
<path transform="translate(1594,1559)" d="m0 0" fill="#E4C68A"/>
<path transform="translate(1583,1559)" d="m0 0"/>
<path transform="translate(1580,1558)" d="m0 0" fill="#E4C68A"/>
<path transform="translate(1578,1557)" d="m0 0"/>
<path transform="translate(1604,1555)" d="m0 0" fill="#71C697"/>
<path transform="translate(1609,1551)" d="m0 0" fill="#E4C68A"/>
<path transform="translate(1572,1551)" d="m0 0" fill="#E4C68A"/>
<path transform="translate(1571,1550)" d="m0 0" fill="#E4C68A"/>
<path transform="translate(1570,1549)" d="m0 0" fill="#71C697"/>
<path transform="translate(1613,1548)" d="m0 0" fill="#E4C68A"/>
<path transform="translate(1614,1547)" d="m0 0" fill="#E4C68A"/>
<path transform="translate(1567,1544)" d="m0 0" fill="#E4C68A"/>
<path transform="translate(1779,1543)" d="m0 0" fill="#E4C68A"/>
<path transform="translate(1600,1542)" d="m0 0" fill="#E4C68A"/>
<path transform="translate(1785,1539)" d="m0 0"/>
<path transform="translate(1605,1539)" d="m0 0" fill="#E4C68A"/>
<path transform="translate(1786,1538)" d="m0 0" fill="#E4C68A"/>
<path transform="translate(1505,1537)" d="m0 0" fill="#E4C68A"/>
<path transform="translate(1485,1537)" d="m0 0" fill="#E4C68A"/>
<path transform="translate(1609,1536)" d="m0 0" fill="#E4C68A"/>
<path transform="translate(1483,1536)" d="m0 0" fill="#E4C68A"/>
<path transform="translate(1790,1535)" d="m0 0" fill="#E4C68A"/>
<path transform="translate(1610,1535)" d="m0 0" fill="#71C697"/>
<path transform="translate(1611,1534)" d="m0 0" fill="#E4C68A"/>
<path transform="translate(1512,1534)" d="m0 0" fill="#E4C68A"/>
<path transform="translate(1513,1533)" d="m0 0" fill="#E4C68A"/>
<path transform="translate(1674,1532)" d="m0 0" fill="#E4C68A"/>
<path transform="translate(1479,1532)" d="m0 0"/>
<path transform="translate(1698,1531)" d="m0 0" fill="#E4C68A"/>
<path transform="translate(1614,1531)" d="m0 0" fill="#E4C68A"/>
<path transform="translate(1516,1531)" d="m0 0" fill="#E4C68A"/>
<path transform="translate(1700,1530)" d="m0 0"/>
<path transform="translate(1668,1530)" d="m0 0" fill="#E4C68A"/>
<path transform="translate(1615,1530)" d="m0 0" fill="#E4C68A"/>
<path transform="translate(1518,1530)" d="m0 0" fill="#E4C68A"/>
<path transform="translate(1521,1528)" d="m0 0" fill="#E4C68A"/>
<path transform="translate(1619,1526)" d="m0 0" fill="#71C697"/>
<path transform="translate(1620,1525)" d="m0 0" fill="#E4C68A"/>
<path transform="translate(1524,1525)" d="m0 0" fill="#E4C68A"/>
<path transform="translate(1714,1524)" d="m0 0" fill="#E4C68A"/>
<path transform="translate(1525,1524)" d="m0 0" fill="#71C697"/>
<path transform="translate(1803,1522)" d="m0 0" fill="#E4C68A"/>
<path transform="translate(1623,1522)" d="m0 0" fill="#E4C68A"/>
<path transform="translate(1819,1521)" d="m0 0" fill="#E4C68A"/>
<path transform="translate(1804,1521)" d="m0 0" fill="#E4C68A"/>
<path transform="translate(1766,1518)" d="m0 0"/>
<path transform="translate(1627,1517)" d="m0 0" fill="#E4C68A"/>
<path transform="translate(1823,1516)" d="m0 0" fill="#E4C68A"/>
<path transform="translate(1808,1516)" d="m0 0" fill="#E4C68A"/>
<path transform="translate(1657,1516)" d="m0 0" fill="#E4C68A"/>
<path transform="translate(1545,1516)" d="m0 0"/>
<path transform="translate(1476,1515)" d="m0 0" fill="#E4C68A"/>
<path transform="translate(1630,1513)" d="m0 0" fill="#E4C68A"/>
<path transform="translate(1551,1513)" d="m0 0" fill="#E4C68A"/>
<path transform="translate(1477,1513)" d="m0 0" fill="#E4C68A"/>
<path transform="translate(1811,1512)" d="m0 0" fill="#E4C68A"/>
<path transform="translate(1768,1512)" d="m0 0" fill="#E4C68A"/>
<path transform="translate(1732,1512)" d="m0 0" fill="#E4C68A"/>
<path transform="translate(1669,1512)" d="m0 0"/>
<path transform="translate(1552,1512)" d="m0 0" fill="#71C697"/>
<path transform="translate(1812,1511)" d="m0 0" fill="#E4C68A"/>
<path transform="translate(1734,1511)" d="m0 0" fill="#E4C68A"/>
<path transform="translate(1670,1511)" d="m0 0"/>
<path transform="translate(1478,1511)" d="m0 0" fill="#E4C68A"/>
<path transform="translate(1046,1511)" d="m0 0" fill="#E4C68A"/>
<path transform="translate(1672,1510)" d="m0 0" fill="#E4C68A"/>
<path transform="translate(1045,1510)" d="m0 0" fill="#E4C68A"/>
<path transform="translate(1771,1508)" d="m0 0" fill="#71C697"/>
<path transform="translate(1677,1508)" d="m0 0" fill="#E4C68A"/>
<path transform="translate(534,1508)" d="m0 0" fill="#E4C68A"/>
<path transform="translate(1772,1507)" d="m0 0" fill="#E4C68A"/>
<path transform="translate(1679,1507)" d="m0 0" fill="#E4C68A"/>
<path transform="translate(1634,1507)" d="m0 0" fill="#E4C68A"/>
<path transform="translate(1635,1506)" d="m0 0" fill="#E4C68A"/>
<path transform="translate(1636,1505)" d="m0 0" fill="#E4C68A"/>
<path transform="translate(1775,1504)" d="m0 0" fill="#71C697"/>
<path transform="translate(1741,1504)" d="m0 0" fill="#E4C68A"/>
<path transform="translate(1776,1503)" d="m0 0" fill="#E4C68A"/>
<path transform="translate(1684,1503)" d="m0 0" fill="#E4C68A"/>
<path transform="translate(1050,1502)" d="m0 0"/>
<path transform="translate(1480,1501)" d="m0 0" fill="#E4C68A"/>
<path transform="translate(1689,1500)" d="m0 0" fill="#E4C68A"/>
<path transform="translate(1821,1499)" d="m0 0" fill="#E4C68A"/>
<path transform="translate(1779,1499)" d="m0 0" fill="#E4C68A"/>
<path transform="translate(1591,1499)" d="m0 0" fill="#71C697"/>
<path transform="translate(1481,1499)" d="m0 0" fill="#71C697"/>
<path transform="translate(1482,1498)" d="m0 0" fill="#71C697"/>
<path transform="translate(1484,1495)" d="m0 0" fill="#E4C68A"/>
<path transform="translate(1784,1493)" d="m0 0" fill="#E4C68A"/>
<path transform="translate(1540,1493)" d="m0 0" fill="#E4C68A"/>
<path transform="translate(1824,1492)" d="m0 0" fill="#71C697"/>
<path transform="translate(1838,1491)" d="m0 0" fill="#E4C68A"/>
<path transform="translate(1825,1491)" d="m0 0"/>
<path transform="translate(1826,1490)" d="m0 0" fill="#E4C68A"/>
<path transform="translate(1787,1490)" d="m0 0" fill="#E4C68A"/>
<path transform="translate(1698,1490)" d="m0 0" fill="#E4C68A"/>
<path transform="translate(1839,1489)" d="m0 0" fill="#71C697"/>
<path transform="translate(1789,1488)" d="m0 0" fill="#E4C68A"/>
<path transform="translate(1840,1487)" d="m0 0" fill="#E4C68A"/>
<path transform="translate(1751,1487)" d="m0 0"/>
<path transform="translate(1569,1486)" d="m0 0" fill="#E4C68A"/>
<path transform="translate(1792,1485)" d="m0 0" fill="#E4C68A"/>
<path transform="translate(1752,1485)" d="m0 0" fill="#E4C68A"/>
<path transform="translate(1644,1484)" d="m0 0" fill="#71C697"/>
<path transform="translate(1570,1484)" d="m0 0" fill="#E4C68A"/>
<path transform="translate(1490,1484)" d="m0 0" fill="#E4C68A"/>
<path transform="translate(1829,1483)" d="m0 0"/>
<path transform="translate(1645,1483)" d="m0 0" fill="#E4C68A"/>
<path transform="translate(1841,1482)" d="m0 0" fill="#71C697"/>
<path transform="translate(1571,1482)" d="m0 0" fill="#E4C68A"/>
<path transform="translate(1491,1482)" d="m0 0"/>
<path transform="translate(1795,1481)" d="m0 0" fill="#E4C68A"/>
<path transform="translate(1492,1481)" d="m0 0" fill="#71C697"/>
<path transform="translate(1831,1480)" d="m0 0" fill="#E4C68A"/>
<path transform="translate(1539,1480)" d="m0 0" fill="#71C697"/>
<path transform="translate(1797,1479)" d="m0 0" fill="#E4C68A"/>
<path transform="translate(1798,1477)" d="m0 0" fill="#E4C68A"/>
<path transform="translate(1649,1477)" d="m0 0" fill="#E4C68A"/>
<path transform="translate(1494,1477)" d="m0 0" fill="#E4C68A"/>
<path transform="translate(1833,1476)" d="m0 0" fill="#E4C68A"/>
<path transform="translate(1799,1476)" d="m0 0" fill="#E4C68A"/>
<path transform="translate(1536,1476)" d="m0 0" fill="#E4C68A"/>
<path transform="translate(1495,1476)" d="m0 0" fill="#E4C68A"/>
<path transform="translate(1705,1475)" d="m0 0"/>
<path transform="translate(1535,1475)" d="m0 0" fill="#E4C68A"/>
<path transform="translate(1497,1474)" d="m0 0" fill="#E4C68A"/>
<path transform="translate(1653,1473)" d="m0 0" fill="#E4C68A"/>
<path transform="translate(1499,1473)" d="m0 0" fill="#E4C68A"/>
<path transform="translate(1756,1472)" d="m0 0" fill="#E4C68A"/>
<path transform="translate(1533,1472)" d="m0 0" fill="#71C697"/>
<path transform="translate(1500,1472)" d="m0 0" fill="#71C697"/>
<path transform="translate(1532,1471)" d="m0 0" fill="#71C697"/>
<path transform="translate(1530,1470)" d="m0 0" fill="#E4C68A"/>
<path transform="translate(1503,1470)" d="m0 0" fill="#E4C68A"/>
<path transform="translate(1601,1469)" d="m0 0" fill="#71C697"/>
<path transform="translate(1505,1469)" d="m0 0" fill="#E4C68A"/>
<path transform="translate(1576,1467)" d="m0 0"/>
<path transform="translate(1521,1467)" d="m0 0"/>
<path transform="translate(1807,1466)" d="m0 0" fill="#E4C68A"/>
<path transform="translate(1808,1465)" d="m0 0" fill="#71C697"/>
<path transform="translate(1703,1465)" d="m0 0" fill="#E4C68A"/>
<path transform="translate(1665,1465)" d="m0 0" fill="#E4C68A"/>
<path transform="translate(1577,1465)" d="m0 0" fill="#E4C68A"/>
<path transform="translate(1702,1464)" d="m0 0" fill="#71C697"/>
<path transform="translate(1667,1464)" d="m0 0" fill="#E4C68A"/>
<path transform="translate(1701,1463)" d="m0 0" fill="#71C697"/>
<path transform="translate(1759,1462)" d="m0 0" fill="#E4C68A"/>
<path transform="translate(1672,1462)" d="m0 0" fill="#E4C68A"/>
<path transform="translate(1578,1462)" d="m0 0" fill="#E4C68A"/>
<path transform="translate(1811,1460)" d="m0 0" fill="#71C697"/>
<path transform="translate(1697,1460)" d="m0 0" fill="#71C697"/>
<path transform="translate(1696,1459)" d="m0 0"/>
<path transform="translate(1694,1458)" d="m0 0" fill="#E4C68A"/>
<path transform="translate(1604,1458)" d="m0 0" fill="#E4C68A"/>
<path transform="translate(1579,1458)" d="m0 0" fill="#E4C68A"/>
<path transform="translate(1814,1456)" d="m0 0" fill="#E4C68A"/>
<path transform="translate(1605,1456)" d="m0 0"/>
<path transform="translate(1762,1455)" d="m0 0" fill="#E4C68A"/>
<path transform="translate(1815,1454)" d="m0 0" fill="#E4C68A"/>
<path transform="translate(1606,1454)" d="m0 0" fill="#71C697"/>
<path transform="translate(1816,1453)" d="m0 0" fill="#71C697"/>
<path transform="translate(1763,1453)" d="m0 0" fill="#E4C68A"/>
<path transform="translate(1817,1452)" d="m0 0" fill="#E4C68A"/>
<path transform="translate(1564,1449)" d="m0 0" fill="#E4C68A"/>
<path transform="translate(1583,1448)" d="m0 0" fill="#71C697"/>
<path transform="translate(1566,1448)" d="m0 0" fill="#E4C68A"/>
<path transform="translate(1820,1447)" d="m0 0" fill="#E4C68A"/>
<path transform="translate(1568,1447)" d="m0 0" fill="#E4C68A"/>
<path transform="translate(1766,1446)" d="m0 0" fill="#E4C68A"/>
<path transform="translate(1570,1446)" d="m0 0" fill="#E4C68A"/>
<path transform="translate(1767,1444)" d="m0 0" fill="#E4C68A"/>
<path transform="translate(1583,1444)" d="m0 0"/>
<path transform="translate(1648,1443)" d="m0 0"/>
<path transform="translate(1823,1442)" d="m0 0" fill="#E4C68A"/>
<path transform="translate(1655,1442)" d="m0 0"/>
<path transform="translate(1639,1441)" d="m0 0" fill="#E4C68A"/>
<path transform="translate(1824,1440)" d="m0 0" fill="#E4C68A"/>
<path transform="translate(1769,1440)" d="m0 0" fill="#E4C68A"/>
<path transform="translate(1549,1440)" d="m0 0"/>
<path transform="translate(1550,1439)" d="m0 0"/>
<path transform="translate(1825,1438)" d="m0 0" fill="#E4C68A"/>
<path transform="translate(1770,1438)" d="m0 0" fill="#E4C68A"/>
<path transform="translate(1551,1438)" d="m0 0"/>
<path transform="translate(1773,1434)" d="m0 0" fill="#E4C68A"/>
<path transform="translate(1655,1433)" d="m0 0" fill="#71C697"/>
<path transform="translate(1828,1432)" d="m0 0" fill="#E4C68A"/>
<path transform="translate(1654,1432)" d="m0 0"/>
<path transform="translate(1571,1432)" d="m0 0" fill="#E4C68A"/>
<path transform="translate(1581,1430)" d="m0 0" fill="#E4C68A"/>
<path transform="translate(1776,1428)" d="m0 0" fill="#E4C68A"/>
<path transform="translate(1591,1425)" d="m0 0"/>
<path transform="translate(1592,1424)" d="m0 0"/>
<path transform="translate(1832,1423)" d="m0 0" fill="#E4C68A"/>
<path transform="translate(1593,1423)" d="m0 0" fill="#E4C68A"/>
<path transform="translate(1833,1422)" d="m0 0" fill="#E4C68A"/>
<path transform="translate(1834,1421)" d="m0 0"/>
<path transform="translate(1594,1421)" d="m0 0" fill="#E4C68A"/>
<path transform="translate(1781,1419)" d="m0 0" fill="#E4C68A"/>
<path transform="translate(1624,1417)" d="m0 0" fill="#E4C68A"/>
<path transform="translate(1784,1415)" d="m0 0"/>
<path transform="translate(1596,1415)" d="m0 0"/>
<path transform="translate(1785,1414)" d="m0 0" fill="#71C697"/>
<path transform="translate(1597,1414)" d="m0 0"/>
<path transform="translate(1786,1413)" d="m0 0" fill="#E4C68A"/>
<path transform="translate(1787,1412)" d="m0 0" fill="#E4C68A"/>
<path transform="translate(1626,1410)" d="m0 0" fill="#E4C68A"/>
<path transform="translate(1627,1409)" d="m0 0" fill="#E4C68A"/>
<path transform="translate(1628,1408)" d="m0 0" fill="#E4C68A"/>
<path transform="translate(1837,1407)" d="m0 0"/>
<path transform="translate(1792,1405)" d="m0 0" fill="#E4C68A"/>
<path transform="translate(1793,1404)" d="m0 0" fill="#71C697"/>
<path transform="translate(1794,1403)" d="m0 0"/>
<path transform="translate(1795,1402)" d="m0 0" fill="#71C697"/>
<path transform="translate(1796,1401)" d="m0 0" fill="#E4C68A"/>
<path transform="translate(1797,1400)" d="m0 0" fill="#E4C68A"/>
<path transform="translate(1836,1396)" d="m0 0" fill="#E4C68A"/>
<path transform="translate(1835,1395)" d="m0 0" fill="#E4C68A"/>
<path transform="translate(1628,1395)" d="m0 0" fill="#E4C68A"/>
<path transform="translate(1804,1394)" d="m0 0" fill="#E4C68A"/>
<path transform="translate(1626,1394)" d="m0 0" fill="#E4C68A"/>
<path transform="translate(1834,1393)" d="m0 0"/>
<path transform="translate(1805,1393)" d="m0 0" fill="#E4C68A"/>
<path transform="translate(1833,1392)" d="m0 0" fill="#E4C68A"/>
<path transform="translate(1806,1392)" d="m0 0" fill="#E4C68A"/>
<path transform="translate(1831,1391)" d="m0 0" fill="#E4C68A"/>
<path transform="translate(1808,1391)" d="m0 0" fill="#E4C68A"/>
<path transform="translate(1830,1390)" d="m0 0" fill="#E4C68A"/>
<path transform="translate(1810,1390)" d="m0 0" fill="#71C697"/>
<path transform="translate(1820,1388)" d="m0 0" fill="#E4C68A"/>
</svg>
